<svg width="16" height="16" viewBox="0 0 16 16" fill="none" xmlns="http://www.w3.org/2000/svg">
<g id="Group">
<path id="Vector" d="M7.99984 4.6665C8.65296 4.66647 9.2917 4.8583 9.83672 5.21817C10.3817 5.57804 10.809 6.0901 11.0655 6.69074C11.322 7.29139 11.3964 7.95415 11.2795 8.59671C11.1625 9.23927 10.8594 9.83332 10.4077 10.3051C9.95605 10.7768 9.37573 11.1055 8.73886 11.2503C8.10199 11.395 7.43662 11.3495 6.82539 11.1193C6.21417 10.8892 5.68403 10.4846 5.30081 9.95568C4.91759 9.42681 4.69818 8.79701 4.66984 8.1445L4.6665 7.99984L4.66984 7.85517C4.70712 6.997 5.07424 6.18636 5.69465 5.59228C6.31506 4.9982 7.14086 4.66655 7.99984 4.6665Z" fill="#DC0000"/>
</g>
</svg>
